<?xml version="1.0" encoding="UTF-8"?>
<svg id="Layer_2" data-name="Layer 2" xmlns="http://www.w3.org/2000/svg" viewBox="0 0 65.23 129.39">
  <defs>
    <style>
      .cls-1 {
        fill: #231f20;
      }

      .cls-2 {
        stroke-dasharray: 2.4 2.4;
      }

      .cls-2, .cls-3, .cls-4, .cls-5, .cls-6, .cls-7, .cls-8, .cls-9 {
        fill: none;
      }

      .cls-2, .cls-4 {
        stroke: #231f20;
        stroke-miterlimit: 2.61;
      }

      .cls-3 {
        stroke-width: .52px;
      }

      .cls-3, .cls-5, .cls-6, .cls-7, .cls-8, .cls-9 {
        stroke: #010101;
        stroke-miterlimit: 22.93;
      }

      .cls-4 {
        stroke-width: .5px;
      }

      .cls-5 {
        stroke-width: .22px;
      }

      .cls-6 {
        stroke-width: .6px;
      }

      .cls-10 {
        fill-rule: evenodd;
      }

      .cls-10, .cls-11 {
        fill: #010101;
      }

      .cls-7 {
        stroke-width: .65px;
      }

      .cls-8 {
        stroke-width: .6px;
      }

      .cls-9 {
        stroke-width: .75px;
      }
    </style>
  </defs>
  <g id="Layer_1-2" data-name="Layer 1">
    <polygon class="cls-6" points="28.17 88.41 30.09 92.58 32.01 96.75 28.17 96.75 24.33 96.75 26.25 92.58 28.17 88.41"/>
    <line class="cls-8" x1="24.63" y1="87.68" x2="31.9" y2="96.78"/>
    <line class="cls-8" x1="31.76" y1="87.59" x2="24.49" y2="96.7"/>
    <polyline class="cls-9" points="8.42 89.48 11.21 96.65 19.2 96.54 21.8 89.01"/>
    <path class="cls-9" d="M9.03,90.49c1.25.87,2.57-1.99,5.1,0,.48.38,1.48.36,1.85.02.75-.69,2.53-1.39,3.83-.39.53.41.98.45,1.58,0"/>
    <path class="cls-11" d="M16.55,92.48c-.07,0-.13.02-.18.07-.05.04-.1.12-.13.24-.04.15-.06.41-.06.78s.02.61.05.74c.03.14.08.23.13.27.05.05.11.07.18.07.07,0,.13-.02.18-.07.05-.05.1-.13.12-.24.04-.15.06-.41.06-.77s-.02-.61-.05-.75c-.04-.13-.08-.23-.13-.27-.05-.05-.11-.07-.18-.07M16.55,91.99c.29,0,.51.11.68.32.2.25.29.68.29,1.26s-.1,1-.29,1.26c-.16.21-.39.32-.68.32s-.53-.12-.71-.35c-.18-.23-.27-.64-.27-1.23s.1-1,.29-1.25c.16-.21.39-.32.68-.32ZM13.22,94.27l.56-.07c.02.15.07.26.14.33.08.08.17.12.28.12.12,0,.22-.05.3-.14.08-.1.12-.22.12-.38,0-.15-.04-.27-.12-.35-.08-.09-.17-.13-.28-.13-.08,0-.16.01-.26.04l.06-.48c.16,0,.27-.03.36-.1.08-.07.12-.17.12-.3,0-.1-.03-.18-.09-.25-.06-.06-.14-.09-.24-.09s-.18.03-.25.1c-.07.07-.11.18-.13.31l-.53-.09c.04-.19.09-.34.17-.45.07-.11.18-.2.31-.27.13-.06.28-.1.45-.1.28,0,.51.09.68.28.14.15.21.32.21.51,0,.27-.14.49-.43.65.17.04.31.12.41.26.1.13.15.29.15.48,0,.27-.1.5-.29.69-.19.19-.43.29-.72.29s-.49-.08-.67-.24c-.18-.16-.28-.37-.31-.63Z"/>
    <path class="cls-5" d="M17.81,91.19c.2,0,.36.17.36.37s-.16.37-.36.37-.36-.16-.36-.37.16-.37.36-.37Z"/>
    <path class="cls-7" d="M39.29,89.46h5.18l1.15,6.92h-9.38c.03-4.12,3.43-3.84,8.78-3.98"/>
    <ellipse class="cls-3" cx="53.31" cy="92.62" rx="3.5" ry="3.59"/>
    <path class="cls-10" d="M39.68,93.79c.37,0,.67.31.67.69s-.3.68-.67.68-.67-.31-.67-.68.3-.69.67-.69"/>
    <path class="cls-11" d="M52.97,91.13v1.29h.5c.36,0,.6-.03.72-.07.12-.05.22-.13.29-.23.07-.1.1-.21.1-.35,0-.16-.05-.3-.15-.4-.09-.11-.21-.18-.37-.2-.11-.02-.32-.03-.65-.03h-.44ZM52.06,94.89v-4.53h1.47c.56,0,.92.02,1.09.07.26.06.47.21.65.44.17.23.26.52.26.88,0,.28-.05.51-.15.7-.1.19-.23.34-.38.45-.16.11-.32.18-.47.21-.22.04-.54.06-.95.06h-.59v1.71h-.92Z"/>
    <rect class="cls-4" x=".25" y=".25" width="64.73" height="128.89"/>
    <path class="cls-1" d="M63.17,7.79h-.73v-1.41c0-.3-.02-.49-.05-.57-.03-.09-.08-.15-.15-.2-.07-.05-.15-.07-.26-.07-.13,0-.24.03-.34.1-.1.07-.17.16-.21.28-.04.12-.06.32-.06.63v1.25h-.73v-2.76h.68v.4c.24-.31.55-.46.91-.46.16,0,.31.03.44.09.14.06.24.13.3.22.07.09.12.19.14.31.03.11.04.28.04.49v1.71ZM59.19,7.79v-2.76h.73v2.76h-.73ZM59.19,4.66v-.68h.73v.68h-.73ZM56.52,6.35c0,.29.06.5.17.64.11.13.25.2.42.2.17,0,.32-.07.45-.21.13-.14.19-.35.19-.62s-.06-.49-.17-.63c-.12-.14-.27-.21-.45-.21s-.32.07-.43.2c-.11.14-.17.35-.17.62ZM55.87,7.96l.83.1c.02.1.05.16.1.2.07.05.18.08.33.08.19,0,.33-.03.43-.09.06-.04.12-.1.15-.19.02-.06.03-.17.03-.33v-.4c-.22.3-.49.45-.82.45-.37,0-.66-.16-.88-.47-.17-.25-.26-.56-.26-.92,0-.46.11-.81.33-1.06.22-.24.5-.37.83-.37s.62.15.84.45v-.39h.68v2.47c0,.33-.03.57-.08.73-.05.16-.13.29-.23.38-.1.09-.22.16-.39.21-.16.05-.37.08-.61.08-.47,0-.8-.08-.99-.24-.2-.16-.29-.37-.29-.61v-.09ZM54.57,7.79h-.73v-2.76h.67v.39c.12-.19.22-.31.31-.37.1-.06.2-.09.32-.09.17,0,.32.05.48.14l-.22.63c-.13-.08-.24-.12-.35-.12s-.19.03-.26.09c-.07.05-.13.15-.17.3-.04.15-.06.46-.06.92v.85ZM52.44,6.47c-.09.03-.24.07-.44.11-.2.04-.33.08-.4.13-.1.07-.14.15-.14.25s.04.19.12.27c.07.07.17.11.29.11.13,0,.26-.04.38-.13.09-.07.15-.15.17-.24.02-.06.03-.18.03-.35v-.14ZM51.46,5.88l-.66-.12c.07-.27.2-.47.38-.6.19-.13.45-.19.81-.19.32,0,.57.04.73.12.15.07.27.17.33.29.06.12.1.33.1.65v.85c-.01.24,0,.42.03.53.02.12.06.24.13.37h-.72s-.04-.12-.07-.21c-.01-.04-.02-.07-.03-.08-.12.12-.25.21-.4.28-.14.06-.29.09-.45.09-.28,0-.5-.08-.67-.23-.17-.15-.25-.35-.25-.58,0-.16.04-.3.11-.42.07-.12.18-.21.31-.28.13-.07.32-.12.58-.17.34-.06.57-.13.71-.18v-.07c0-.14-.03-.24-.1-.3-.07-.06-.2-.09-.39-.09-.13,0-.23.03-.31.08-.07.05-.13.14-.18.27ZM46.15,5.03h.67v.38c.24-.29.53-.44.86-.44.18,0,.33.04.46.11.13.07.23.19.32.33.12-.14.25-.25.39-.33.14-.07.29-.11.45-.11.2,0,.37.04.51.12.14.08.24.2.31.36.05.12.07.31.07.57v1.76h-.73v-1.57c0-.28-.03-.45-.07-.53-.07-.1-.17-.15-.31-.15-.1,0-.2.03-.29.09-.09.07-.15.15-.2.28-.04.12-.06.31-.06.57v1.32h-.73v-1.51c0-.26-.01-.44-.04-.52-.03-.07-.07-.13-.12-.17-.05-.04-.13-.06-.22-.06-.11,0-.21.03-.3.09-.09.06-.15.15-.19.26-.04.12-.06.3-.06.57v1.34h-.73v-2.76ZM42.07,6.35c0,.29.06.5.17.64.11.13.26.2.42.2.17,0,.32-.07.45-.21.13-.14.19-.35.19-.62s-.06-.49-.18-.63c-.12-.14-.26-.21-.44-.21s-.32.07-.43.2c-.11.14-.17.35-.17.62ZM41.41,7.96l.83.1c.02.1.05.16.1.2.07.05.18.08.33.08.19,0,.33-.03.43-.09.06-.04.12-.1.15-.19.02-.06.03-.17.03-.33v-.4c-.22.3-.49.45-.82.45-.37,0-.66-.16-.88-.47-.17-.25-.26-.56-.26-.92,0-.46.11-.81.33-1.06.22-.24.5-.37.83-.37s.62.15.84.45v-.39h.68v2.47c0,.33-.03.57-.08.73-.05.16-.13.29-.23.38-.1.09-.22.16-.39.21-.16.05-.37.08-.61.08-.47,0-.8-.08-.99-.24-.2-.16-.29-.37-.29-.61v-.09ZM40.74,7.79h-.73v-1.41c0-.3-.02-.49-.05-.57-.03-.09-.08-.15-.15-.2-.07-.05-.15-.07-.26-.07-.13,0-.24.03-.34.1s-.17.16-.21.28c-.04.12-.06.32-.06.63v1.25h-.73v-2.76h.67v.4c.24-.31.55-.46.91-.46.16,0,.31.03.44.09.14.06.24.13.3.22.07.09.12.19.14.31.03.11.04.28.04.49v1.71ZM36.76,7.79v-2.76h.73v2.76h-.73ZM36.76,4.66v-.68h.73v.68h-.73ZM34.23,3.99v1.41c.24-.28.52-.42.85-.42.17,0,.32.03.46.09.13.06.23.14.3.24.07.1.12.21.14.32.03.12.04.3.04.55v1.61h-.73v-1.46c0-.29-.02-.47-.04-.55-.03-.08-.07-.14-.15-.19-.07-.05-.16-.07-.26-.07-.12,0-.23.03-.33.09-.1.06-.16.14-.21.27-.05.12-.07.29-.07.52v1.38h-.73v-3.8h.73ZM32.96,5.85l-.72.13c-.02-.14-.08-.25-.16-.32-.09-.07-.2-.11-.34-.11-.18,0-.32.06-.43.19-.11.13-.17.34-.17.63,0,.33.05.56.17.7.11.13.26.2.44.2.14,0,.25-.04.34-.12.09-.08.15-.22.18-.41l.72.12c-.07.33-.22.58-.43.74-.21.17-.49.26-.85.26-.4,0-.72-.13-.96-.38s-.36-.61-.36-1.06.12-.81.36-1.06c.24-.26.56-.38.97-.38.33,0,.61.07.8.22.2.14.34.36.43.66ZM30.05,5.03v.58h-.5v1.11c0,.23,0,.36.02.4.01.04.03.06.06.09.03.03.07.04.12.04.07,0,.17-.02.3-.07l.06.56c-.17.07-.36.11-.57.11-.13,0-.25-.02-.36-.06-.11-.05-.18-.11-.23-.17-.05-.07-.08-.16-.11-.29-.01-.09-.02-.25-.02-.52v-1.21h-.33v-.58h.33v-.55l.73-.43v.98h.5ZM27.32,7.79v-2.76h.73v2.76h-.73ZM27.32,4.66v-.68h.73v.68h-.73ZM26.81,5.03v.58h-.5v1.11c0,.23,0,.36.02.4,0,.04.03.06.06.09.03.03.07.04.12.04.07,0,.16-.02.3-.07l.06.56c-.17.07-.36.11-.57.11-.13,0-.25-.02-.36-.06-.11-.05-.18-.11-.23-.17-.05-.07-.09-.16-.11-.29-.01-.09-.02-.25-.02-.52v-1.21h-.33v-.58h.33v-.55l.73-.43v.98h.5ZM21.81,6.56l.75-.07c.05.25.14.43.27.55.14.12.32.18.56.18s.43-.05.56-.16c.12-.1.19-.22.19-.37,0-.09-.03-.17-.08-.23-.05-.06-.14-.12-.28-.16-.08-.03-.29-.09-.61-.16-.41-.1-.7-.23-.86-.38-.23-.21-.35-.47-.35-.77,0-.19.05-.38.16-.54.11-.17.27-.3.47-.39s.46-.13.75-.13c.47,0,.83.11,1.07.32.24.21.37.49.38.84l-.77.03c-.03-.2-.1-.34-.21-.43-.11-.09-.27-.13-.48-.13-.22,0-.4.05-.52.14-.08.06-.12.14-.12.24,0,.09.04.17.12.23.1.08.33.17.7.26.37.09.65.18.83.28.17.1.32.22.42.39.1.16.15.36.15.61,0,.22-.06.42-.18.61-.12.19-.29.33-.51.43-.22.09-.49.14-.83.14-.48,0-.85-.11-1.1-.34-.26-.22-.41-.54-.46-.97ZM15.76,5.03h.67v.38c.24-.29.53-.44.86-.44.18,0,.33.04.46.11.13.07.23.19.32.33.12-.14.25-.25.39-.33.14-.07.29-.11.45-.11.2,0,.37.04.51.12.14.08.24.2.31.36.05.12.07.31.07.57v1.76h-.73v-1.57c0-.28-.03-.45-.07-.53-.07-.1-.17-.15-.31-.15-.1,0-.2.03-.29.09-.09.07-.15.15-.2.28-.04.12-.06.31-.06.57v1.32h-.73v-1.51c0-.26-.01-.44-.04-.52-.03-.07-.07-.13-.12-.17-.05-.04-.13-.06-.22-.06-.11,0-.21.03-.3.09-.09.06-.15.15-.19.26-.04.12-.06.3-.06.57v1.34h-.73v-2.76ZM15.26,5.85l-.72.13c-.02-.14-.08-.25-.16-.32-.08-.07-.2-.11-.33-.11-.18,0-.32.06-.43.19-.11.13-.16.34-.16.63,0,.33.05.56.16.7.11.13.26.2.44.2.14,0,.25-.04.34-.12.09-.08.15-.22.18-.41l.72.12c-.07.33-.22.58-.43.74-.21.17-.49.26-.85.26-.4,0-.72-.13-.96-.38s-.36-.61-.36-1.06.12-.81.36-1.06c.24-.26.56-.38.97-.38.33,0,.61.07.8.22.2.14.34.36.42.66ZM9.76,6.81l.73-.07c.02.16.09.3.19.39.1.1.22.14.35.14.15,0,.28-.06.39-.19.11-.13.16-.31.16-.56s-.05-.41-.16-.53c-.1-.12-.24-.18-.41-.18-.21,0-.4.09-.56.28l-.59-.09.37-1.98h1.93v.68h-1.38l-.11.65c.16-.08.32-.12.49-.12.32,0,.6.12.82.36.23.23.34.54.34.92,0,.31-.09.59-.27.84-.25.33-.6.51-1.03.51-.35,0-.64-.1-.86-.28-.22-.19-.36-.44-.4-.76ZM8.43,7.79v-.73h.73v.73h-.73ZM6.56,4.57c-.09,0-.17.03-.23.08-.07.05-.12.15-.16.3-.05.19-.07.5-.07.96s.02.75.07.92c.04.17.1.28.16.34.07.06.14.08.23.08.08,0,.16-.03.23-.08.07-.06.12-.16.16-.3.05-.19.07-.5.07-.95s-.02-.75-.06-.92c-.05-.17-.1-.28-.17-.34-.07-.06-.14-.08-.23-.08ZM6.56,3.96c.37,0,.65.13.86.39.25.31.37.83.37,1.56s-.12,1.24-.37,1.55c-.21.26-.49.39-.86.39s-.67-.14-.9-.43c-.23-.28-.34-.79-.34-1.52s.13-1.23.37-1.55c.21-.26.49-.39.87-.39Z"/>
    <line class="cls-2" x1=".25" y1="117.69" x2="64.98" y2="117.69"/>
    <line class="cls-2" x1=".25" y1="11.69" x2="64.98" y2="11.69"/>
    <path class="cls-10" d="M42.45,93.79c.37,0,.67.31.67.69s-.3.68-.67.68-.67-.31-.67-.68.3-.69.67-.69"/>
    <path class="cls-1" d="M60.93,124.99h-.73v-1.41c0-.3-.02-.49-.05-.57-.03-.09-.08-.15-.15-.2-.07-.05-.15-.08-.26-.08-.13,0-.24.03-.34.1-.1.07-.17.16-.21.28-.04.12-.06.32-.06.63v1.25h-.73v-2.76h.67v.4c.25-.31.55-.46.91-.46.16,0,.31.03.44.09.14.06.24.13.3.22.07.09.12.19.14.31.03.11.04.28.04.49v1.71ZM56.95,124.99v-2.76h.73v2.76h-.73ZM56.95,121.86v-.68h.73v.68h-.73ZM54.29,123.56c0,.29.06.5.17.64.11.13.25.2.42.2.17,0,.32-.07.45-.21.13-.14.19-.35.19-.62s-.06-.49-.17-.63c-.12-.14-.27-.21-.45-.21s-.32.07-.43.2c-.11.14-.17.35-.17.62ZM53.64,125.16l.83.1c.02.1.05.16.1.2.07.05.18.08.33.08.19,0,.33-.03.42-.08.06-.04.12-.1.15-.19.02-.06.03-.17.03-.33v-.4c-.22.3-.49.45-.82.45-.37,0-.66-.16-.88-.47-.17-.25-.25-.56-.25-.92,0-.46.11-.81.33-1.06.22-.24.5-.37.83-.37s.62.15.85.45v-.39h.68v2.47c0,.33-.03.57-.08.73-.05.16-.13.29-.23.38-.1.09-.22.17-.39.21-.16.05-.37.08-.61.08-.47,0-.8-.08-.99-.24-.2-.16-.29-.37-.29-.61v-.09ZM52.34,124.99h-.73v-2.76h.67v.39c.12-.19.22-.31.31-.37.1-.06.2-.09.32-.09.17,0,.32.05.48.14l-.22.63c-.13-.08-.24-.12-.35-.12s-.19.03-.26.08c-.07.05-.13.15-.17.3-.04.15-.06.46-.06.92v.85ZM50.21,123.67c-.09.03-.24.07-.44.11-.2.04-.33.09-.4.13-.1.07-.14.15-.14.25s.04.19.12.27c.07.07.17.11.29.11.13,0,.26-.04.38-.13.09-.07.15-.15.17-.24.02-.06.03-.18.03-.35v-.14ZM49.23,123.08l-.66-.12c.07-.27.2-.47.38-.6.19-.13.45-.19.81-.19.32,0,.57.04.73.12.15.07.27.17.33.29.06.12.1.33.1.65v.85c-.01.24,0,.42.03.53.02.12.06.24.13.37h-.72s-.04-.12-.07-.21c-.01-.04-.02-.07-.03-.08-.12.12-.25.21-.4.28-.14.06-.29.09-.45.09-.28,0-.5-.08-.67-.23-.16-.15-.24-.34-.24-.58,0-.16.04-.3.11-.42.07-.12.18-.21.31-.28.13-.07.32-.12.58-.17.34-.06.57-.13.71-.18v-.07c0-.14-.03-.24-.1-.3-.07-.06-.2-.09-.39-.09-.13,0-.23.03-.31.08-.07.05-.13.14-.18.27ZM43.92,122.23h.67v.38c.24-.29.52-.44.86-.44.18,0,.33.04.46.11.13.07.23.19.32.33.12-.14.25-.25.39-.33.14-.07.29-.11.45-.11.2,0,.37.04.51.12.14.09.24.2.31.36.05.12.07.31.07.57v1.76h-.73v-1.57c0-.28-.03-.45-.07-.53-.07-.1-.17-.15-.31-.15-.1,0-.2.03-.29.09-.09.06-.15.15-.2.28-.04.12-.06.31-.06.57v1.32h-.73v-1.51c0-.26-.01-.44-.04-.52-.03-.07-.07-.13-.12-.17-.05-.04-.13-.06-.22-.06-.11,0-.21.03-.3.09-.09.06-.15.15-.19.26-.04.12-.06.3-.06.57v1.34h-.73v-2.76ZM39.83,123.56c0,.29.06.5.17.64.11.13.26.2.42.2.17,0,.32-.07.45-.21.13-.14.19-.35.19-.62s-.06-.49-.18-.63c-.12-.14-.26-.21-.45-.21s-.32.07-.43.2c-.11.14-.17.35-.17.62ZM39.18,125.16l.83.1c.02.1.05.16.1.2.07.05.18.08.33.08.19,0,.33-.03.42-.08.06-.04.12-.1.15-.19.02-.06.03-.17.03-.33v-.4c-.22.3-.49.45-.82.45-.37,0-.66-.16-.88-.47-.17-.25-.26-.56-.26-.92,0-.46.11-.81.33-1.06.22-.24.5-.37.83-.37s.62.15.85.45v-.39h.68v2.47c0,.33-.03.57-.08.73-.05.16-.13.29-.23.38-.1.09-.22.17-.39.21-.16.05-.37.08-.61.08-.47,0-.8-.08-.99-.24-.2-.16-.29-.37-.29-.61v-.09ZM38.51,124.99h-.73v-1.41c0-.3-.02-.49-.05-.57-.03-.09-.08-.15-.15-.2-.07-.05-.15-.08-.26-.08-.13,0-.24.03-.34.1-.1.07-.17.16-.21.28-.04.12-.06.32-.06.63v1.25h-.73v-2.76h.67v.4c.24-.31.55-.46.91-.46.16,0,.31.03.44.09.14.06.24.13.3.22.07.09.12.19.14.31.03.11.04.28.04.49v1.71ZM34.53,124.99v-2.76h.73v2.76h-.73ZM34.53,121.86v-.68h.73v.68h-.73ZM32,121.19v1.41c.24-.28.52-.42.85-.42.17,0,.32.03.46.09.13.06.23.14.3.24.07.1.12.21.14.32.03.12.04.3.04.55v1.61h-.73v-1.46c0-.29-.02-.47-.04-.55-.03-.08-.07-.14-.15-.19-.07-.05-.16-.07-.27-.07-.12,0-.23.03-.33.09-.1.06-.16.14-.21.27-.05.12-.07.29-.07.52v1.38h-.73v-3.8h.73ZM30.73,123.05l-.72.13c-.02-.14-.08-.25-.16-.32-.09-.07-.2-.11-.34-.11-.18,0-.32.06-.43.19-.11.13-.17.34-.17.63,0,.33.05.56.17.7.11.13.26.2.44.2.14,0,.25-.04.34-.12.09-.08.15-.22.19-.41l.72.12c-.07.33-.22.58-.43.74-.21.17-.49.26-.85.26-.4,0-.72-.13-.96-.38-.24-.26-.36-.61-.36-1.06s.12-.81.36-1.06c.24-.26.56-.38.97-.38.33,0,.61.07.8.22.2.14.34.36.43.66ZM27.82,122.23v.58h-.5v1.11c0,.23,0,.36.02.4.01.04.03.06.06.09.03.03.07.04.12.04.07,0,.16-.02.3-.07l.06.56c-.17.08-.36.11-.57.11-.13,0-.25-.02-.36-.06-.11-.05-.18-.11-.23-.17-.05-.07-.08-.16-.11-.29-.01-.09-.02-.26-.02-.52v-1.2h-.33v-.58h.33v-.55l.73-.43v.98h.5ZM25.09,124.99v-2.76h.73v2.76h-.73ZM25.09,121.86v-.68h.73v.68h-.73ZM24.58,122.23v.58h-.5v1.11c0,.23,0,.36.02.4,0,.04.03.06.06.09.03.03.07.04.12.04.07,0,.16-.02.3-.07l.06.56c-.17.08-.36.11-.57.11-.13,0-.25-.02-.36-.06-.11-.05-.18-.11-.23-.17-.05-.07-.09-.16-.11-.29-.01-.09-.02-.26-.02-.52v-1.2h-.33v-.58h.33v-.55l.73-.43v.98h.5ZM19.58,123.76l.75-.07c.05.25.14.44.27.55.14.12.32.18.56.18s.43-.05.56-.16c.12-.1.19-.22.19-.37,0-.09-.03-.17-.08-.23-.05-.06-.14-.12-.28-.16-.08-.03-.29-.09-.61-.16-.41-.1-.7-.23-.86-.38-.23-.21-.35-.47-.35-.77,0-.19.05-.38.16-.54.11-.17.27-.3.47-.39.21-.09.46-.13.75-.13.47,0,.83.11,1.07.32.24.21.37.49.38.84l-.77.03c-.03-.2-.1-.34-.21-.42-.11-.08-.27-.13-.48-.13-.22,0-.4.05-.52.14-.08.06-.12.14-.12.24,0,.09.04.16.12.23.1.08.33.17.7.25.37.09.65.18.83.28.18.1.32.22.42.39.1.16.15.36.15.61,0,.22-.06.42-.18.61-.12.19-.29.33-.51.42-.22.09-.49.14-.83.14-.48,0-.85-.11-1.1-.33-.26-.22-.41-.54-.46-.97ZM13.53,122.23h.67v.38c.24-.29.53-.44.86-.44.18,0,.33.04.46.11.13.07.23.19.32.33.12-.14.25-.25.39-.33.14-.07.29-.11.44-.11.2,0,.37.04.51.12.14.09.25.2.31.36.05.12.07.31.07.57v1.76h-.73v-1.57c0-.28-.03-.45-.07-.53-.07-.1-.17-.15-.31-.15-.1,0-.2.03-.29.09-.09.06-.15.15-.2.28-.04.12-.06.31-.06.57v1.32h-.73v-1.51c0-.26-.01-.44-.04-.52-.03-.07-.07-.13-.12-.17-.05-.04-.13-.06-.22-.06-.11,0-.21.03-.3.09-.09.06-.15.15-.19.26-.04.12-.06.3-.06.57v1.34h-.73v-2.76ZM13.03,123.05l-.72.13c-.02-.14-.08-.25-.16-.32-.08-.07-.2-.11-.33-.11-.18,0-.32.06-.43.19-.11.13-.16.34-.16.63,0,.33.05.56.16.7.11.13.26.2.44.2.14,0,.25-.04.34-.12.09-.08.15-.22.18-.41l.72.12c-.07.33-.22.58-.43.74-.21.17-.49.26-.85.26-.4,0-.72-.13-.96-.38-.24-.26-.36-.61-.36-1.06s.12-.81.36-1.06c.24-.26.56-.38.97-.38.33,0,.61.07.8.22.2.14.34.36.42.66ZM7.53,124.01l.73-.07c.02.16.09.3.19.39.1.1.22.14.35.14.15,0,.28-.06.39-.19.11-.13.16-.31.16-.56s-.05-.41-.16-.53c-.1-.12-.24-.18-.41-.18-.21,0-.4.09-.56.28l-.59-.08.37-1.98h1.93v.68h-1.38l-.11.65c.16-.08.32-.12.49-.12.32,0,.6.12.82.36.23.23.34.54.34.92,0,.31-.09.59-.27.84-.25.33-.59.51-1.03.51-.35,0-.64-.1-.86-.28-.22-.19-.36-.44-.4-.76ZM6.19,124.99v-.73h.73v.73h-.73ZM4.32,121.77c-.09,0-.17.03-.23.08-.07.05-.12.15-.16.3-.05.19-.07.5-.07.96s.02.75.07.92c.04.17.1.28.16.34.07.06.14.08.23.08.08,0,.16-.03.23-.08.07-.06.12-.16.16-.3.05-.19.07-.5.07-.95s-.02-.75-.06-.92c-.05-.17-.1-.28-.17-.33-.07-.06-.14-.08-.23-.08ZM4.32,121.17c.37,0,.65.13.86.39.25.31.37.83.37,1.56s-.12,1.24-.37,1.55c-.21.26-.49.39-.86.39s-.67-.14-.9-.43c-.23-.28-.34-.79-.34-1.52s.13-1.23.37-1.55c.21-.26.49-.39.87-.39Z"/>
    <path class="cls-11" d="M32.14,31.79v-4.19h.86v3.48h2.12v.71h-2.98ZM28.23,29.67c0,.48.11.84.33,1.09.22.25.51.37.84.37s.62-.12.84-.37c.22-.25.32-.61.32-1.11s-.11-.84-.32-1.08c-.21-.24-.49-.36-.85-.36s-.64.12-.85.36c-.22.24-.32.61-.32,1.09ZM27.35,29.7c0-.43.07-.79.2-1.09.09-.21.22-.41.39-.58.17-.17.35-.3.54-.38.27-.11.57-.17.92-.17.62,0,1.12.19,1.49.58.37.39.56.93.56,1.62s-.18,1.21-.55,1.6c-.37.38-.87.58-1.49.58s-1.13-.2-1.5-.58c-.37-.38-.56-.91-.56-1.59ZM24.45,28.28v1.2h.47c.34,0,.56-.02.67-.07.11-.05.2-.12.27-.21.07-.09.09-.2.09-.33,0-.15-.05-.28-.14-.38-.09-.1-.2-.16-.34-.19-.1-.02-.3-.03-.61-.03h-.41ZM23.59,31.79v-4.22h1.37c.52,0,.86.02,1.02.07.24.06.44.2.61.41.16.21.24.48.24.82,0,.26-.05.48-.14.65-.1.18-.21.32-.35.42-.15.1-.3.17-.44.2-.21.04-.5.06-.88.06h-.56v1.59h-.85ZM20.01,30.84c0,.28.03.46.1.55.05.07.12.11.2.11.09,0,.15-.04.2-.11.06-.09.09-.28.09-.55s-.03-.46-.09-.55c-.05-.07-.11-.11-.2-.11s-.15.04-.2.11c-.07.09-.1.28-.1.55ZM19.38,30.84c0-.38.08-.66.25-.84.17-.18.39-.27.68-.27s.52.09.68.27c.17.18.25.47.25.84s-.08.66-.25.84c-.17.19-.4.28-.68.28s-.52-.09-.69-.28c-.17-.18-.25-.46-.25-.84ZM18.08,31.96h-.6l2.25-4.47h.59l-2.24,4.47ZM17.16,28.6c0,.28.03.46.1.55.05.07.12.11.2.11.09,0,.15-.04.2-.11.07-.09.09-.27.09-.55s-.03-.45-.09-.54c-.05-.07-.11-.11-.2-.11-.08,0-.15.03-.2.1-.07.1-.1.28-.1.55ZM16.53,28.6c0-.38.08-.65.25-.84.17-.18.4-.27.68-.27s.53.09.69.27c.16.18.25.46.25.84s-.08.66-.25.84c-.17.18-.4.27-.68.27s-.52-.09-.69-.27c-.17-.18-.25-.46-.25-.84ZM14.62,28.22c-.1,0-.18.03-.26.1-.08.06-.14.17-.18.34-.05.21-.08.56-.08,1.06s.02.84.08,1.02c.05.19.11.31.18.37.08.06.16.09.26.09.09,0,.18-.03.25-.09.08-.07.14-.18.18-.34.05-.21.08-.56.08-1.06s-.02-.84-.07-1.03c-.05-.18-.11-.31-.19-.37-.08-.07-.16-.1-.25-.1ZM14.62,27.54c.41,0,.73.15.96.44.28.35.41.93.41,1.73s-.14,1.38-.41,1.72c-.23.29-.55.44-.96.44s-.74-.16-1-.48c-.25-.31-.38-.88-.38-1.69s.14-1.37.41-1.72c.23-.29.55-.43.96-.43ZM11.34,28.22c-.1,0-.18.03-.26.1-.08.06-.14.17-.18.34-.05.21-.08.56-.08,1.06s.02.84.08,1.02c.05.19.11.31.18.37.08.06.16.09.26.09s.18-.03.25-.09c.08-.07.14-.18.18-.34.05-.21.08-.56.08-1.06s-.02-.84-.07-1.03c-.05-.18-.11-.31-.19-.37-.08-.07-.16-.1-.25-.1ZM11.34,27.54c.41,0,.73.15.96.44.28.35.41.93.41,1.73s-.14,1.38-.41,1.72c-.23.29-.55.44-.96.44s-.74-.16-1-.48c-.25-.31-.38-.88-.38-1.69s.14-1.37.41-1.72c.23-.29.55-.43.96-.43ZM8.75,31.79h-.81v-3.06c-.3.28-.64.48-1.04.61v-.74c.21-.07.44-.2.69-.4.25-.19.41-.42.51-.67h.66v4.25Z"/>
    <path class="cls-11" d="M55.39,29.36h.63c.41,0,.67-.02.77-.05.1-.04.18-.09.24-.18.06-.09.09-.2.09-.32,0-.14-.03-.26-.11-.35-.08-.08-.18-.14-.32-.16-.07,0-.28-.01-.62-.01h-.67v1.07ZM54.53,31.79v-4.22h1.8c.45,0,.78.04.98.11.21.08.37.21.5.41.12.19.18.41.18.67,0,.31-.1.58-.28.78-.19.21-.47.34-.83.39.18.11.34.22.46.35.12.13.28.36.48.68l.51.83h-1.02l-.61-.92c-.22-.33-.37-.54-.45-.62-.08-.09-.16-.15-.25-.18-.09-.03-.24-.05-.44-.05h-.17v1.76h-.85ZM50.6,31.79v-4.22h3.13v.71h-2.27v.94h2.11v.72h-2.11v1.14h2.35v.71h-3.21ZM47.94,31.79v-3.51h-1.25v-.71h3.35v.71h-1.25v3.51h-.85ZM42.83,30.42l.83-.08c.05.28.15.48.3.61.15.13.36.2.62.2.27,0,.48-.06.62-.18.14-.11.21-.25.21-.41,0-.1-.03-.18-.09-.25-.06-.07-.16-.13-.31-.18-.09-.04-.32-.09-.68-.18-.45-.11-.77-.25-.96-.42-.26-.24-.39-.52-.39-.86,0-.21.06-.42.18-.6.12-.19.29-.33.53-.43.23-.1.51-.15.83-.15.52,0,.93.12,1.19.35.27.23.41.54.42.94l-.85.03c-.04-.22-.11-.38-.23-.47-.12-.09-.3-.14-.54-.14-.25,0-.44.05-.58.15-.09.06-.13.15-.13.27,0,.1.04.18.13.25.11.1.37.19.78.28.41.1.72.2.92.31.2.1.35.25.47.43.11.18.17.4.17.67,0,.24-.07.47-.2.68-.14.21-.32.37-.57.47-.24.1-.55.15-.92.15-.53,0-.94-.12-1.23-.37-.29-.24-.45-.6-.51-1.07ZM39.12,31.79v-4.22h3.13v.71h-2.27v.94h2.11v.72h-2.11v1.14h2.35v.71h-3.21ZM36.29,31.79v-1.78l-1.55-2.45h1l1,1.67.97-1.67h.99l-1.55,2.46v1.77h-.86Z"/>
  </g>
</svg>