<?xml version="1.0" encoding="UTF-8"?>
<svg id="Layer_2" data-name="Layer 2" xmlns="http://www.w3.org/2000/svg" xmlns:xlink="http://www.w3.org/1999/xlink" viewBox="0 0 435.12 11.9">
  <defs>
    <style>
      .cls-1 {
        fill: none;
      }

      .cls-2 {
        fill: #010101;
        fill-rule: evenodd;
      }

      .cls-3 {
        clip-path: url(#clippath);
      }
    </style>
    <clipPath id="clippath">
      <rect class="cls-1" width="435.12" height="11.9"/>
    </clipPath>
  </defs>
  <g id="Layer_1-2" data-name="Layer 1">
    <g class="cls-3">
      <path class="cls-2" d="M9.09,4.13h-2.15v-1.4c0-.36-.29-.62-.64-.62h-.35c-.36,0-.64.25-.64.62v6.43c0,.36.29.62.64.62h.35c.36,0,.64-.25.64-.62v-3.46h1.65c.13,0,.31.05.31.29v3.17c0,.36.29.62.64.62h.35c.36,0,.64-.25.64-.62v-3.67c0-.63-.33-1.37-1.45-1.37M21.55,4.13h-3.5c-1.12,0-1.45.61-1.45,1.37v3.67c0,.36.29.62.64.62h.35c.35,0,.64-.25.64-.62v-3.23c0-.22.18-.26.31-.26h.08c.12,0,.31.04.31.26v3.23c0,.36.28.61.63.62h.37c.36,0,.65-.25.65-.62v-3.22c0-.22.18-.27.31-.27h.07c.13,0,.31.04.31.26v3.23c0,.36.29.62.64.62h.35c.36,0,.65-.25.65-.62v-3.67c0-.76-.33-1.37-1.36-1.37ZM15.5,4.13h-.35c-.36,0-.65.25-.65.62v3.2c0,.24-.18.29-.31.29h-1.24c-.13,0-.31-.05-.31-.29v-3.2c0-.36-.29-.62-.65-.62h-.35c-.36,0-.64.25-.64.62v3.67c0,.63.33,1.37,1.45,1.37h2.25c1.12,0,1.45-.74,1.45-1.37v-3.67c0-.36-.29-.62-.64-.62ZM36.81,2.12h-.35c-.36,0-.64.25-.64.62v6.43c0,.36.29.62.64.62h.35c.35,0,.64-.25.64-.62V2.73c0-.36-.29-.62-.64-.62ZM33.81,5.94v-.07c0-.11-.05-.28-.29-.28h-1.48c-.24,0-.28.16-.28.28v.34h1.77c.23,0,.28-.16.28-.28ZM34.02,7.69h-2.26v.35c0,.1.05.27.23.27.09,0,2.76,0,2.76,0,.35,0,.6.26.6.58v.31c0,.32-.25.58-.6.58h-3.29c-.61,0-1.34-.29-1.34-1.3v-3.05c0-.99.71-1.3,1.34-1.3h2.56c.61,0,1.34.29,1.34,1.3v.96c0,1.01-.72,1.3-1.34,1.3ZM29.66,5.5v3.67c0,.36-.29.62-.65.62h-.35c-.36,0-.65-.25-.65-.62v-3.23c0-.22-.18-.26-.31-.26h-.07c-.12,0-.31.04-.31.27v3.22c0,.36-.29.62-.65.62h-.36c-.35,0-.63-.26-.63-.62v-3.23c0-.22-.19-.26-.31-.26h-.07c-.13,0-.31.04-.31.26v3.23c0,.36-.29.62-.64.62h-.35c-.36,0-.64-.25-.64-.62v-3.67c0-.76.33-1.37,1.45-1.37h3.5c1.03,0,1.36.61,1.36,1.37Z"/>
      <path class="cls-2" d="M52.11,4.13h-2.15v-1.4c0-.36-.29-.62-.64-.62h-.35c-.36,0-.64.25-.64.62v6.43c0,.36.29.62.64.62h.35c.36,0,.64-.25.64-.62v-3.46h1.65c.13,0,.31.05.31.29v3.17c0,.36.29.62.64.62h.35c.35,0,.65-.25.65-.62v-3.67c0-.63-.33-1.37-1.45-1.37M64.56,4.13h-3.5c-1.12,0-1.45.61-1.45,1.37v3.67c0,.36.29.62.64.62h.35c.35,0,.64-.25.64-.62v-3.23c0-.22.18-.26.31-.26h.08c.12,0,.31.04.31.26v3.23c0,.36.28.61.63.62h.37c.36,0,.65-.25.65-.62v-3.22c0-.22.18-.27.31-.27h.07c.13,0,.31.04.31.26v3.23c0,.36.29.62.64.62h.35c.36,0,.65-.25.65-.62v-3.67c0-.76-.33-1.37-1.36-1.37ZM58.51,4.13h-.35c-.36,0-.65.25-.65.62v3.2c0,.24-.18.29-.31.29h-1.24c-.13,0-.31-.05-.31-.29v-3.2c0-.36-.29-.62-.65-.62h-.35c-.35,0-.64.25-.64.62v3.67c0,.63.33,1.37,1.45,1.37h2.25c1.12,0,1.45-.74,1.45-1.37v-3.67c0-.36-.29-.62-.64-.62ZM79.83,2.12h-.35c-.36,0-.64.25-.64.62v6.43c0,.36.29.62.64.62h.35c.35,0,.64-.25.64-.62V2.73c0-.36-.29-.62-.64-.62ZM76.83,5.94v-.07c0-.11-.05-.28-.29-.28h-1.48c-.24,0-.28.16-.28.28v.34h1.77c.23,0,.28-.16.28-.28ZM77.04,7.69h-2.26v.35c0,.1.05.27.23.27.09,0,2.76,0,2.76,0,.35,0,.6.26.6.58v.31c0,.32-.25.58-.6.58h-3.29c-.61,0-1.34-.29-1.34-1.3v-3.05c0-.99.71-1.3,1.34-1.3h2.56c.61,0,1.34.29,1.34,1.3v.96c0,1.01-.72,1.3-1.34,1.3ZM72.68,5.5v3.67c0,.36-.29.62-.65.62h-.35c-.36,0-.65-.25-.65-.62v-3.23c0-.22-.18-.26-.31-.26h-.07c-.12,0-.31.04-.31.27v3.22c0,.36-.29.62-.65.62h-.36c-.35,0-.63-.26-.63-.62v-3.23c0-.22-.18-.26-.31-.26h-.07c-.13,0-.31.04-.31.26v3.23c0,.36-.29.62-.64.62h-.35c-.35,0-.64-.25-.64-.62v-3.67c0-.76.33-1.37,1.45-1.37h3.5c1.03,0,1.36.61,1.36,1.37Z"/>
      <path class="cls-2" d="M95.13,4.13h-2.15v-1.4c0-.36-.29-.62-.64-.62h-.35c-.36,0-.64.25-.64.62v6.43c0,.36.29.62.64.62h.35c.36,0,.64-.25.64-.62v-3.46h1.65c.13,0,.31.05.31.29v3.17c0,.36.29.62.64.62h.35c.36,0,.64-.25.64-.62v-3.67c0-.63-.33-1.37-1.45-1.37M107.58,4.13h-3.5c-1.12,0-1.45.61-1.45,1.37v3.67c0,.36.29.62.64.62h.35c.35,0,.64-.25.64-.62v-3.23c0-.22.18-.26.31-.26h.08c.12,0,.31.04.31.26v3.23c0,.36.28.61.63.62h.37c.36,0,.65-.25.65-.62v-3.22c0-.22.18-.27.31-.27h.07c.13,0,.31.04.31.26v3.23c0,.36.29.62.64.62h.35c.36,0,.65-.25.65-.62v-3.67c0-.76-.33-1.37-1.36-1.37ZM101.53,4.13h-.35c-.36,0-.65.25-.65.62v3.2c0,.24-.18.29-.31.29h-1.24c-.13,0-.31-.05-.31-.29v-3.2c0-.36-.29-.62-.65-.62h-.35c-.35,0-.64.25-.64.62v3.67c0,.63.33,1.37,1.45,1.37h2.25c1.12,0,1.45-.74,1.45-1.37v-3.67c0-.36-.29-.62-.64-.62ZM122.85,2.12h-.35c-.36,0-.64.25-.64.62v6.43c0,.36.29.62.64.62h.35c.35,0,.64-.25.64-.62V2.73c0-.36-.29-.62-.64-.62ZM119.85,5.94v-.07c0-.11-.05-.28-.29-.28h-1.48c-.24,0-.28.16-.28.28v.34h1.77c.23,0,.28-.16.28-.28ZM120.06,7.69h-2.26v.35c0,.1.05.27.23.27.09,0,2.76,0,2.76,0,.35,0,.6.26.6.58v.31c0,.32-.25.58-.6.58h-3.29c-.61,0-1.34-.29-1.34-1.3v-3.05c0-.99.71-1.3,1.34-1.3h2.56c.61,0,1.34.29,1.34,1.3v.96c0,1.01-.72,1.3-1.34,1.3ZM115.7,5.5v3.67c0,.36-.29.62-.65.62h-.35c-.36,0-.65-.25-.65-.62v-3.23c0-.22-.18-.26-.31-.26h-.07c-.12,0-.31.04-.31.27v3.22c0,.36-.29.62-.65.62h-.36c-.35,0-.63-.26-.63-.62v-3.23c0-.22-.18-.26-.31-.26h-.07c-.13,0-.31.04-.31.26v3.23c0,.36-.29.62-.64.62h-.35c-.35,0-.64-.25-.64-.62v-3.67c0-.76.33-1.37,1.45-1.37h3.5c1.03,0,1.36.61,1.36,1.37Z"/>
      <path class="cls-2" d="M138.15,4.13h-2.15v-1.4c0-.36-.29-.62-.64-.62h-.35c-.36,0-.64.25-.64.62v6.43c0,.36.29.62.64.62h.35c.36,0,.64-.25.64-.62v-3.46h1.65c.13,0,.31.05.31.29v3.17c0,.36.29.62.64.62h.35c.35,0,.65-.25.65-.62v-3.67c0-.63-.33-1.37-1.45-1.37M150.6,4.13h-3.5c-1.12,0-1.45.61-1.45,1.37v3.67c0,.36.29.62.64.62h.35c.35,0,.64-.25.64-.62v-3.23c0-.22.18-.26.31-.26h.08c.12,0,.31.04.31.26v3.23c0,.36.28.61.63.62h.37c.36,0,.65-.25.65-.62v-3.22c0-.22.18-.27.31-.27h.07c.13,0,.31.04.31.26v3.23c0,.36.29.62.64.62h.35c.36,0,.65-.25.65-.62v-3.67c0-.76-.33-1.37-1.36-1.37ZM144.55,4.13h-.35c-.36,0-.65.25-.65.62v3.2c0,.24-.18.29-.31.29h-1.24c-.13,0-.31-.05-.31-.29v-3.2c0-.36-.29-.62-.65-.62h-.35c-.35,0-.64.25-.64.62v3.67c0,.63.33,1.37,1.45,1.37h2.25c1.12,0,1.45-.74,1.45-1.37v-3.67c0-.36-.29-.62-.64-.62ZM165.86,2.12h-.35c-.36,0-.64.25-.64.62v6.43c0,.36.29.62.64.62h.35c.35,0,.64-.25.64-.62V2.73c0-.36-.29-.62-.64-.62ZM162.87,5.94v-.07c0-.11-.05-.28-.29-.28h-1.48c-.24,0-.28.16-.28.28v.34h1.77c.23,0,.28-.16.28-.28ZM163.07,7.69h-2.26v.35c0,.1.05.27.23.27.09,0,2.76,0,2.76,0,.35,0,.6.26.6.58v.31c0,.32-.25.58-.6.58h-3.29c-.61,0-1.34-.29-1.34-1.3v-3.05c0-.99.71-1.3,1.34-1.3h2.56c.61,0,1.34.29,1.34,1.3v.96c0,1.01-.72,1.3-1.34,1.3ZM158.72,5.5v3.67c0,.36-.29.62-.65.62h-.35c-.36,0-.65-.25-.65-.62v-3.23c0-.22-.18-.26-.31-.26h-.07c-.12,0-.31.04-.31.27v3.22c0,.36-.29.62-.65.62h-.36c-.35,0-.63-.26-.63-.62v-3.23c0-.22-.18-.26-.31-.26h-.07c-.13,0-.31.04-.31.26v3.23c0,.36-.29.62-.64.62h-.35c-.35,0-.64-.25-.64-.62v-3.67c0-.76.33-1.37,1.45-1.37h3.5c1.03,0,1.36.61,1.36,1.37Z"/>
      <path class="cls-2" d="M181.16,4.13h-2.15v-1.4c0-.36-.29-.62-.64-.62h-.35c-.36,0-.64.25-.64.62v6.43c0,.36.29.62.64.62h.35c.36,0,.64-.25.64-.62v-3.46h1.65c.13,0,.31.05.31.29v3.17c0,.36.29.62.64.62h.35c.36,0,.64-.25.64-.62v-3.67c0-.63-.33-1.37-1.45-1.37M193.62,4.13h-3.5c-1.12,0-1.45.61-1.45,1.37v3.67c0,.36.29.62.64.62h.35c.35,0,.64-.25.64-.62v-3.23c0-.22.18-.26.31-.26h.08c.12,0,.31.04.31.26v3.23c0,.36.28.61.63.62h.37c.36,0,.64-.25.64-.62v-3.22c0-.22.18-.27.31-.27h.07c.13,0,.31.04.31.26v3.23c0,.36.29.62.64.62h.35c.36,0,.64-.25.64-.62v-3.67c0-.76-.33-1.37-1.36-1.37ZM187.57,4.13h-.35c-.36,0-.65.25-.65.62v3.2c0,.24-.18.29-.31.29h-1.24c-.13,0-.31-.05-.31-.29v-3.2c0-.36-.29-.62-.65-.62h-.35c-.35,0-.64.25-.64.62v3.67c0,.63.33,1.37,1.45,1.37h2.24c1.12,0,1.45-.74,1.45-1.37v-3.67c0-.36-.29-.62-.64-.62ZM208.88,2.12h-.35c-.36,0-.64.25-.64.62v6.43c0,.36.29.62.64.62h.35c.35,0,.64-.25.64-.62V2.73c0-.36-.29-.62-.64-.62ZM205.89,5.94v-.07c0-.11-.05-.28-.29-.28h-1.48c-.24,0-.28.16-.28.28v.34h1.77c.23,0,.28-.16.28-.28ZM206.09,7.69h-2.26v.35c0,.1.05.27.23.27.09,0,2.76,0,2.76,0,.35,0,.6.26.6.58v.31c0,.32-.25.58-.6.58h-3.29c-.61,0-1.34-.29-1.34-1.3v-3.05c0-.99.71-1.3,1.34-1.3h2.56c.61,0,1.34.29,1.34,1.3v.96c0,1.01-.72,1.3-1.34,1.3ZM201.74,5.5v3.67c0,.36-.29.62-.65.62h-.35c-.36,0-.64-.25-.64-.62v-3.23c0-.22-.18-.26-.31-.26h-.07c-.12,0-.31.04-.31.27v3.22c0,.36-.29.62-.64.62h-.36c-.35,0-.63-.26-.63-.62v-3.23c0-.22-.19-.26-.31-.26h-.08c-.13,0-.31.04-.31.26v3.23c0,.36-.29.62-.64.62h-.35c-.35,0-.64-.25-.64-.62v-3.67c0-.76.33-1.37,1.45-1.37h3.5c1.03,0,1.36.61,1.36,1.37Z"/>
      <path class="cls-2" d="M224.18,4.13h-2.15v-1.4c0-.36-.29-.62-.64-.62h-.35c-.36,0-.64.25-.64.62v6.43c0,.36.29.62.64.62h.35c.36,0,.64-.25.64-.62v-3.46h1.65c.13,0,.31.05.31.29v3.17c0,.36.29.62.64.62h.35c.35,0,.64-.25.64-.62v-3.67c0-.63-.33-1.37-1.45-1.37M236.64,4.13h-3.5c-1.12,0-1.45.61-1.45,1.37v3.67c0,.36.29.62.64.62h.35c.35,0,.64-.25.64-.62v-3.23c0-.22.18-.26.31-.26h.08c.12,0,.31.04.31.26v3.23c0,.36.28.61.63.62h.37c.36,0,.64-.25.64-.62v-3.22c0-.22.18-.27.31-.27h.07c.13,0,.31.04.31.26v3.23c0,.36.29.62.64.62h.35c.36,0,.65-.25.65-.62v-3.67c0-.76-.33-1.37-1.36-1.37ZM230.59,4.13h-.35c-.36,0-.65.25-.65.62v3.2c0,.24-.18.29-.31.29h-1.24c-.13,0-.31-.05-.31-.29v-3.2c0-.36-.29-.62-.65-.62h-.35c-.35,0-.64.25-.64.62v3.67c0,.63.33,1.37,1.45,1.37h2.24c1.12,0,1.45-.74,1.45-1.37v-3.67c0-.36-.29-.62-.64-.62ZM251.9,2.12h-.35c-.36,0-.64.25-.64.62v6.43c0,.36.29.62.64.62h.35c.35,0,.64-.25.64-.62V2.73c0-.36-.29-.62-.64-.62ZM248.9,5.94v-.07c0-.11-.05-.28-.29-.28h-1.48c-.24,0-.28.16-.28.28v.34h1.77c.23,0,.28-.16.28-.28ZM249.11,7.69h-2.26v.35c0,.1.05.27.23.27.09,0,2.76,0,2.76,0,.35,0,.6.26.6.58v.31c0,.32-.25.58-.6.58h-3.29c-.61,0-1.34-.29-1.34-1.3v-3.05c0-.99.71-1.3,1.34-1.3h2.56c.61,0,1.34.29,1.34,1.3v.96c0,1.01-.72,1.3-1.34,1.3ZM244.75,5.5v3.67c0,.36-.29.62-.65.62h-.35c-.36,0-.65-.25-.65-.62v-3.23c0-.22-.18-.26-.31-.26h-.07c-.12,0-.31.04-.31.27v3.22c0,.36-.29.62-.65.62h-.36c-.35,0-.63-.26-.63-.62v-3.23c0-.22-.18-.26-.31-.26h-.08c-.13,0-.31.04-.31.26v3.23c0,.36-.29.62-.64.62h-.35c-.35,0-.64-.25-.64-.62v-3.67c0-.76.33-1.37,1.45-1.37h3.5c1.03,0,1.36.61,1.36,1.37Z"/>
      <path class="cls-2" d="M267.2,4.13h-2.15v-1.4c0-.36-.29-.62-.64-.62h-.35c-.36,0-.64.25-.64.62v6.43c0,.36.29.62.64.62h.35c.35,0,.64-.25.64-.62v-3.46h1.65c.13,0,.31.05.31.29v3.17c0,.36.29.62.64.62h.35c.35,0,.64-.25.64-.62v-3.67c0-.63-.33-1.37-1.45-1.37M279.65,4.13h-3.5c-1.12,0-1.45.61-1.45,1.37v3.67c0,.36.29.62.64.62h.35c.35,0,.64-.25.64-.62v-3.23c0-.22.18-.26.31-.26h.08c.12,0,.31.04.31.26v3.23c0,.36.28.61.63.62h.37c.36,0,.64-.25.64-.62v-3.22c0-.22.18-.27.31-.27h.07c.13,0,.31.04.31.26v3.23c0,.36.29.62.64.62h.35c.36,0,.65-.25.65-.62v-3.67c0-.76-.33-1.37-1.36-1.37ZM273.6,4.13h-.35c-.36,0-.65.25-.65.62v3.2c0,.24-.18.29-.31.29h-1.24c-.13,0-.31-.05-.31-.29v-3.2c0-.36-.29-.62-.65-.62h-.35c-.35,0-.64.25-.64.62v3.67c0,.63.33,1.37,1.45,1.37h2.24c1.12,0,1.45-.74,1.45-1.37v-3.67c0-.36-.29-.62-.64-.62ZM294.92,2.12h-.35c-.36,0-.64.25-.64.62v6.43c0,.36.29.62.64.62h.35c.35,0,.64-.25.64-.62V2.73c0-.36-.29-.62-.64-.62ZM291.92,5.94v-.07c0-.11-.05-.28-.29-.28h-1.48c-.24,0-.29.16-.29.28v.34h1.77c.23,0,.28-.16.28-.28ZM292.13,7.69h-2.26v.35c0,.1.05.27.23.27.09,0,2.76,0,2.76,0,.35,0,.6.26.6.58v.31c0,.32-.25.58-.6.58h-3.29c-.61,0-1.34-.29-1.34-1.3v-3.05c0-.99.71-1.3,1.34-1.3h2.56c.61,0,1.34.29,1.34,1.3v.96c0,1.01-.72,1.3-1.34,1.3ZM287.77,5.5v3.67c0,.36-.29.62-.65.62h-.35c-.36,0-.65-.25-.65-.62v-3.23c0-.22-.18-.26-.31-.26h-.08c-.12,0-.31.04-.31.27v3.22c0,.36-.29.62-.65.62h-.36c-.35,0-.63-.26-.63-.62v-3.23c0-.22-.18-.26-.31-.26h-.08c-.13,0-.31.04-.31.26v3.23c0,.36-.29.62-.64.62h-.35c-.35,0-.64-.25-.64-.62v-3.67c0-.76.33-1.37,1.45-1.37h3.5c1.02,0,1.36.61,1.36,1.37Z"/>
      <path class="cls-2" d="M309.86,4.13h-2.15v-1.4c0-.36-.29-.62-.64-.62h-.35c-.36,0-.64.25-.64.62v6.43c0,.36.29.62.64.62h.35c.36,0,.64-.25.64-.62v-3.46h1.65c.13,0,.31.05.31.29v3.17c0,.36.29.62.64.62h.35c.36,0,.64-.25.64-.62v-3.67c0-.63-.33-1.37-1.45-1.37M322.31,4.13h-3.5c-1.12,0-1.45.61-1.45,1.37v3.67c0,.36.29.62.64.62h.35c.35,0,.64-.25.64-.62v-3.23c0-.22.18-.26.31-.26h.08c.12,0,.31.04.31.26v3.23c0,.36.28.61.63.62h.37c.36,0,.64-.25.64-.62v-3.22c0-.22.18-.27.31-.27h.07c.13,0,.31.04.31.26v3.23c0,.36.29.62.64.62h.35c.36,0,.65-.25.65-.62v-3.67c0-.76-.33-1.37-1.36-1.37ZM316.26,4.13h-.35c-.36,0-.65.25-.65.62v3.2c0,.24-.18.29-.31.29h-1.24c-.13,0-.31-.05-.31-.29v-3.2c0-.36-.29-.62-.65-.62h-.35c-.35,0-.64.25-.64.62v3.67c0,.63.33,1.37,1.45,1.37h2.25c1.12,0,1.45-.74,1.45-1.37v-3.67c0-.36-.29-.62-.64-.62ZM337.57,2.12h-.35c-.36,0-.64.25-.64.62v6.43c0,.36.29.62.64.62h.35c.35,0,.64-.25.64-.62V2.73c0-.36-.29-.62-.64-.62ZM334.58,5.94v-.07c0-.11-.05-.28-.29-.28h-1.48c-.24,0-.28.16-.28.28v.34h1.77c.23,0,.28-.16.28-.28ZM334.78,7.69h-2.26v.35c0,.1.05.27.23.27.09,0,2.76,0,2.76,0,.35,0,.6.26.6.58v.31c0,.32-.25.58-.6.58h-3.29c-.61,0-1.34-.29-1.34-1.3v-3.05c0-.99.71-1.3,1.34-1.3h2.56c.61,0,1.34.29,1.34,1.3v.96c0,1.01-.72,1.3-1.34,1.3ZM330.43,5.5v3.67c0,.36-.29.62-.65.62h-.35c-.36,0-.64-.25-.64-.62v-3.23c0-.22-.18-.26-.31-.26h-.07c-.12,0-.31.04-.31.27v3.22c0,.36-.29.62-.65.62h-.36c-.35,0-.63-.26-.63-.62v-3.23c0-.22-.19-.26-.31-.26h-.08c-.13,0-.31.04-.31.26v3.23c0,.36-.29.62-.64.62h-.35c-.35,0-.64-.25-.64-.62v-3.67c0-.76.33-1.37,1.45-1.37h3.5c1.03,0,1.36.61,1.36,1.37Z"/>
      <path class="cls-2" d="M352.87,4.13h-2.15v-1.4c0-.36-.29-.62-.64-.62h-.35c-.36,0-.64.25-.64.62v6.43c0,.36.29.62.64.62h.35c.36,0,.64-.25.64-.62v-3.46h1.65c.13,0,.31.05.31.29v3.17c0,.36.29.62.64.62h.35c.35,0,.64-.25.64-.62v-3.67c0-.63-.33-1.37-1.45-1.37M365.33,4.13h-3.5c-1.12,0-1.45.61-1.45,1.37v3.67c0,.36.29.62.64.62h.35c.35,0,.64-.25.64-.62v-3.23c0-.22.18-.26.31-.26h.08c.12,0,.31.04.31.26v3.23c0,.36.28.61.63.62h.37c.36,0,.64-.25.64-.62v-3.22c0-.22.18-.27.31-.27h.07c.13,0,.31.04.31.26v3.23c0,.36.29.62.64.62h.35c.36,0,.65-.25.65-.62v-3.67c0-.76-.33-1.37-1.36-1.37ZM359.28,4.13h-.35c-.36,0-.65.25-.65.62v3.2c0,.24-.18.29-.31.29h-1.24c-.13,0-.31-.05-.31-.29v-3.2c0-.36-.29-.62-.65-.62h-.35c-.35,0-.64.25-.64.62v3.67c0,.63.33,1.37,1.45,1.37h2.24c1.12,0,1.45-.74,1.45-1.37v-3.67c0-.36-.29-.62-.64-.62ZM380.59,2.12h-.35c-.36,0-.64.25-.64.62v6.43c0,.36.29.62.64.62h.35c.35,0,.64-.25.64-.62V2.73c0-.36-.29-.62-.64-.62ZM377.59,5.94v-.07c0-.11-.05-.28-.29-.28h-1.48c-.24,0-.28.16-.28.28v.34h1.77c.23,0,.28-.16.28-.28ZM377.8,7.69h-2.26v.35c0,.1.05.27.23.27.09,0,2.76,0,2.76,0,.35,0,.6.26.6.58v.31c0,.32-.25.58-.6.58h-3.29c-.61,0-1.34-.29-1.34-1.3v-3.05c0-.99.71-1.3,1.34-1.3h2.56c.61,0,1.34.29,1.34,1.3v.96c0,1.01-.72,1.3-1.34,1.3ZM373.45,5.5v3.67c0,.36-.29.62-.65.62h-.35c-.36,0-.65-.25-.65-.62v-3.23c0-.22-.18-.26-.31-.26h-.07c-.12,0-.31.04-.31.27v3.22c0,.36-.29.62-.65.62h-.36c-.35,0-.63-.26-.63-.62v-3.23c0-.22-.18-.26-.31-.26h-.08c-.13,0-.31.04-.31.26v3.23c0,.36-.29.62-.64.62h-.35c-.35,0-.64-.25-.64-.62v-3.67c0-.76.33-1.37,1.45-1.37h3.5c1.03,0,1.36.61,1.36,1.37Z"/>
      <path class="cls-2" d="M395.89,4.13h-2.15v-1.4c0-.36-.29-.62-.64-.62h-.35c-.36,0-.64.25-.64.62v6.43c0,.36.29.62.64.62h.35c.36,0,.64-.25.64-.62v-3.46h1.65c.13,0,.31.05.31.29v3.17c0,.36.29.62.64.62h.35c.36,0,.64-.25.64-.62v-3.67c0-.63-.33-1.37-1.45-1.37M408.34,4.13h-3.5c-1.12,0-1.45.61-1.45,1.37v3.67c0,.36.29.62.64.62h.35c.35,0,.64-.25.64-.62v-3.23c0-.22.18-.26.31-.26h.08c.12,0,.31.04.31.26v3.23c0,.36.28.61.63.62h.37c.36,0,.64-.25.64-.62v-3.22c0-.22.18-.27.31-.27h.07c.13,0,.31.04.31.26v3.23c0,.36.29.62.64.62h.35c.36,0,.64-.25.64-.62v-3.67c0-.76-.33-1.37-1.36-1.37ZM402.3,4.13h-.35c-.36,0-.65.25-.65.62v3.2c0,.24-.18.29-.31.29h-1.24c-.13,0-.31-.05-.31-.29v-3.2c0-.36-.29-.62-.65-.62h-.35c-.35,0-.64.25-.64.62v3.67c0,.63.33,1.37,1.45,1.37h2.24c1.12,0,1.45-.74,1.45-1.37v-3.67c0-.36-.29-.62-.64-.62ZM423.61,2.12h-.35c-.36,0-.64.25-.64.62v6.43c0,.36.29.62.64.62h.35c.35,0,.64-.25.64-.62V2.73c0-.36-.29-.62-.64-.62ZM420.61,5.94v-.07c0-.11-.05-.28-.29-.28h-1.48c-.24,0-.28.16-.28.28v.34h1.77c.23,0,.28-.16.28-.28ZM420.82,7.69h-2.26v.35c0,.1.05.27.23.27.09,0,2.76,0,2.76,0,.35,0,.6.26.6.58v.31c0,.32-.25.58-.6.58h-3.29c-.61,0-1.34-.29-1.34-1.3v-3.05c0-.99.71-1.3,1.34-1.3h2.56c.61,0,1.34.29,1.34,1.3v.96c0,1.01-.72,1.3-1.34,1.3ZM416.46,5.5v3.67c0,.36-.29.62-.65.62h-.35c-.36,0-.65-.25-.65-.62v-3.23c0-.22-.18-.26-.31-.26h-.07c-.12,0-.31.04-.31.27v3.22c0,.36-.29.62-.64.62h-.36c-.35,0-.63-.26-.63-.62v-3.23c0-.22-.18-.26-.31-.26h-.08c-.13,0-.31.04-.31.26v3.23c0,.36-.29.62-.64.62h-.35c-.35,0-.64-.25-.64-.62v-3.67c0-.76.33-1.37,1.45-1.37h3.5c1.03,0,1.36.61,1.36,1.37Z"/>
    </g>
  </g>
</svg>