<?xml version="1.0" encoding="UTF-8"?>
<svg id="Layer_2" data-name="Layer 2" xmlns="http://www.w3.org/2000/svg" viewBox="0 0 99.21 74.04">
  <defs>
    <style>
      .cls-1 {
        fill: #231f20;
      }

      .cls-2 {
        fill-rule: evenodd;
      }

      .cls-2, .cls-3 {
        fill: #939598;
      }

      .cls-4 {
        fill: none;
        stroke: #939598;
        stroke-miterlimit: 10;
        stroke-width: .22px;
      }
    </style>
  </defs>
  <g id="Layer_1-2" data-name="Layer 1">
    <path class="cls-3" d="M83.69,73.83v-2.84c0-1.1-.02-1.9-.07-2.74h.03c.34.71.78,1.47,1.24,2.21l2.11,3.37h.87v-6.65h-.81v2.78c0,1.04.02,1.85.1,2.73h-.02c-.32-.67-.7-1.37-1.19-2.15l-2.13-3.36h-.94v6.65h.81ZM78.1,71.07l.65-1.92c.13-.4.24-.81.34-1.2h.02c.1.38.2.78.34,1.21l.65,1.91h-2ZM80.28,71.74l.71,2.09h.92l-2.27-6.65h-1.03l-2.26,6.65h.89l.69-2.09h2.36ZM73.95,73.83h.87v-5.92h2.03v-.73h-4.92v.73h2.02v5.92ZM67.49,73.51c.35.24,1.06.42,1.7.42,1.57,0,2.33-.89,2.33-1.91s-.57-1.52-1.7-1.95c-.92-.35-1.32-.66-1.32-1.28,0-.46.34-1,1.25-1,.6,0,1.04.2,1.26.32l.23-.7c-.3-.17-.79-.33-1.47-.33-1.29,0-2.15.77-2.15,1.81,0,.94.67,1.5,1.76,1.88.9.34,1.25.7,1.25,1.32,0,.67-.51,1.13-1.39,1.13-.59,0-1.15-.2-1.54-.43l-.22.72ZM65.47,67.18v6.65h.86v-6.65h-.86ZM60.13,73.83h.86v-2.54l.63-.73,2.19,3.26h1.01l-2.59-3.83,2.4-2.82h-1.07l-2.03,2.5c-.17.21-.35.45-.52.71h-.03v-3.21h-.86v6.65ZM55.34,71.07l.65-1.92c.13-.4.24-.81.34-1.2h.02c.1.38.2.78.34,1.21l.65,1.91h-2ZM57.52,71.74l.71,2.09h.92l-2.27-6.65h-1.04l-2.26,6.65h.89l.69-2.09h2.36ZM50.53,67.89c.15-.04.43-.07.81-.07.95,0,1.57.43,1.57,1.3s-.63,1.42-1.67,1.42c-.29,0-.52-.02-.71-.07v-2.58ZM49.67,73.83h.86v-2.66c.2.05.43.06.69.06.84,0,1.58-.25,2.03-.73.33-.35.51-.82.51-1.42s-.22-1.07-.58-1.39c-.39-.35-1.01-.55-1.86-.55-.69,0-1.23.06-1.65.13v6.57ZM41.91,73.83v-2.84c0-1.1-.02-1.9-.07-2.74h.03c.33.71.78,1.47,1.24,2.21l2.11,3.37h.87v-6.65h-.81v2.78c0,1.04.02,1.85.1,2.73h-.02c-.32-.67-.7-1.37-1.19-2.15l-2.13-3.36h-.94v6.65h.81ZM38.74,67.18v6.65h.86v-6.65h-.86ZM35.24,70h-2.58v-2.1h2.73v-.72h-3.59v6.65h3.74v-.72h-2.88v-2.4h2.58v-.71ZM26.09,67.91c.23-.05.56-.09,1.01-.09,1.81,0,2.7,1,2.69,2.56,0,1.79-.99,2.82-2.83,2.82-.33,0-.65,0-.87-.05v-5.25ZM25.23,73.81c.43.05.95.08,1.56.08,1.29,0,2.32-.33,2.94-.96.62-.61.95-1.5.95-2.58s-.34-1.84-.94-2.39c-.58-.54-1.46-.83-2.69-.83-.68,0-1.3.06-1.83.14v6.54ZM20.45,71.07l.65-1.92c.13-.4.24-.81.34-1.2h.02c.1.38.2.78.34,1.21l.65,1.91h-2ZM22.63,71.74l.71,2.09h.92l-2.27-6.65h-1.04l-2.26,6.65h.89l.69-2.09h2.36ZM17.14,73.83h.84l-.41-6.65h-1.1l-1.18,3.21c-.3.84-.53,1.57-.7,2.24h-.03c-.17-.69-.4-1.42-.67-2.24l-1.13-3.21h-1.1l-.46,6.65h.82l.18-2.85c.06-.99.11-2.11.13-2.94h.02c.19.79.45,1.65.77,2.58l1.08,3.17h.65l1.17-3.22c.34-.92.61-1.74.84-2.52h.03c-.01.83.05,1.94.1,2.87l.17,2.92Z"/>
    <path class="cls-4" d="M83.69,73.83v-2.84c0-1.1-.02-1.9-.07-2.74h.03c.34.71.78,1.47,1.24,2.21l2.11,3.37h.87v-6.65h-.81v2.78c0,1.04.02,1.85.1,2.73h-.02c-.32-.67-.7-1.37-1.19-2.15l-2.13-3.36h-.94v6.65h.81ZM78.1,71.07l.65-1.92c.13-.4.24-.81.34-1.2h.02c.1.38.2.78.34,1.21l.65,1.91h-2ZM80.28,71.74l.71,2.09h.92l-2.27-6.65h-1.03l-2.26,6.65h.89l.69-2.09h2.36ZM73.95,73.83h.87v-5.92h2.03v-.73h-4.92v.73h2.02v5.92ZM67.49,73.51c.35.24,1.06.42,1.7.42,1.57,0,2.33-.89,2.33-1.91s-.57-1.52-1.7-1.95c-.92-.35-1.32-.66-1.32-1.28,0-.46.34-1,1.25-1,.6,0,1.04.2,1.26.32l.23-.7c-.3-.17-.79-.33-1.47-.33-1.29,0-2.15.77-2.15,1.81,0,.94.67,1.5,1.76,1.88.9.34,1.25.7,1.25,1.32,0,.67-.51,1.13-1.39,1.13-.59,0-1.15-.2-1.54-.43l-.22.72ZM65.47,67.18v6.65h.86v-6.65h-.86ZM60.13,73.83h.86v-2.54l.63-.73,2.19,3.26h1.01l-2.59-3.83,2.4-2.82h-1.07l-2.03,2.5c-.17.21-.35.45-.52.71h-.03v-3.21h-.86v6.65ZM55.34,71.07l.65-1.92c.13-.4.24-.81.34-1.2h.02c.1.38.2.78.34,1.21l.65,1.91h-2ZM57.52,71.74l.71,2.09h.92l-2.27-6.65h-1.04l-2.26,6.65h.89l.69-2.09h2.36ZM50.53,67.89c.15-.04.43-.07.81-.07.95,0,1.57.43,1.57,1.3s-.63,1.42-1.67,1.42c-.29,0-.52-.02-.71-.07v-2.58ZM49.67,73.83h.86v-2.66c.2.05.43.06.69.06.84,0,1.58-.25,2.03-.73.33-.35.51-.82.51-1.42s-.22-1.07-.58-1.39c-.39-.35-1.01-.55-1.86-.55-.69,0-1.23.06-1.65.13v6.57ZM41.91,73.83v-2.84c0-1.1-.02-1.9-.07-2.74h.03c.33.71.78,1.47,1.24,2.21l2.11,3.37h.87v-6.65h-.81v2.78c0,1.04.02,1.85.1,2.73h-.02c-.32-.67-.7-1.37-1.19-2.15l-2.13-3.36h-.94v6.65h.81ZM38.74,67.18v6.65h.86v-6.65h-.86ZM35.24,70h-2.58v-2.1h2.73v-.72h-3.59v6.65h3.74v-.72h-2.88v-2.4h2.58v-.71ZM26.09,67.91c.23-.05.56-.09,1.01-.09,1.81,0,2.7,1,2.69,2.56,0,1.79-.99,2.82-2.83,2.82-.33,0-.65,0-.87-.05v-5.25ZM25.23,73.81c.43.05.95.08,1.56.08,1.29,0,2.32-.33,2.94-.96.62-.61.95-1.5.95-2.58s-.34-1.84-.94-2.39c-.58-.54-1.46-.83-2.69-.83-.68,0-1.3.06-1.83.14v6.54ZM20.45,71.07l.65-1.92c.13-.4.24-.81.34-1.2h.02c.1.38.2.78.34,1.21l.65,1.91h-2ZM22.63,71.74l.71,2.09h.92l-2.27-6.65h-1.04l-2.26,6.65h.89l.69-2.09h2.36ZM17.14,73.83h.84l-.41-6.65h-1.1l-1.18,3.21c-.3.84-.53,1.57-.7,2.24h-.03c-.17-.69-.4-1.42-.67-2.24l-1.13-3.21h-1.1l-.46,6.65h.82l.18-2.85c.06-.99.11-2.11.13-2.94h.02c.19.79.45,1.65.77,2.58l1.08,3.17h.65l1.17-3.22c.34-.92.61-1.74.84-2.52h.03c-.01.83.05,1.94.1,2.87l.17,2.92Z"/>
    <path class="cls-3" d="M76.67,8.8v8.74c0,.87-.63,1.47-1.42,1.47h-.77c-.78,0-1.42-.6-1.42-1.47v-7.69c0-.53-.4-.63-.69-.63h-.16c-.28,0-.68.1-.68.63v7.68c0,.87-.64,1.47-1.42,1.47h-.81c-.77-.02-1.38-.62-1.38-1.47v-7.68c0-.53-.41-.63-.68-.63h-.17c-.29,0-.68.1-.68.63v7.68c0,.87-.63,1.47-1.42,1.47h-.77c-.78,0-1.42-.6-1.42-1.47v-8.73c0-1.81.71-3.26,3.18-3.26h7.7c2.25,0,2.99,1.45,2.99,3.26M86.26,14.02h-4.98v.84c0,.25.11.63.49.63.21,0,6.08.01,6.08.01.78,0,1.33.61,1.33,1.38v.75c0,.76-.55,1.37-1.33,1.37h-7.24c-1.35,0-2.95-.69-2.95-3.09v-7.28c0-2.35,1.56-3.09,2.95-3.09h5.64c1.35,0,2.94.69,2.94,3.09v2.3c0,2.4-1.6,3.09-2.94,3.09ZM85.8,9.86v-.15c0-.27-.11-.67-.62-.67h-3.27c-.51,0-.62.39-.62.67v.82h3.9c.51,0,.61-.39.61-.67ZM92.4.73h-.77c-.78,0-1.42.6-1.42,1.47v15.33c0,.87.64,1.47,1.42,1.47h.77c.78,0,1.42-.6,1.42-1.47V2.2c0-.87-.63-1.47-1.42-1.47ZM45.49,5.54h-.77c-.78,0-1.42.61-1.42,1.47v7.62c0,.56-.4.69-.69.69h-2.73c-.28,0-.68-.13-.68-.69v-7.62c0-.87-.63-1.47-1.42-1.47h-.77c-.78,0-1.41.61-1.41,1.47v8.73c0,1.49.72,3.26,3.19,3.26h4.94c2.47,0,3.18-1.77,3.18-3.26V7.01c0-.87-.63-1.47-1.42-1.47ZM58.81,5.54h-7.7c-2.47,0-3.18,1.45-3.18,3.26v8.73c0,.87.63,1.47,1.42,1.47h.77c.78,0,1.42-.6,1.42-1.47v-7.68c0-.53.39-.63.68-.63h.17c.27,0,.68.1.68.63v7.68c0,.85.62,1.45,1.38,1.47h.81c.78,0,1.42-.6,1.42-1.47v-7.68c0-.53.4-.63.68-.63h.16c.29,0,.69.1.69.63v7.69c0,.87.63,1.47,1.42,1.47h.77c.78,0,1.42-.6,1.42-1.47v-8.74c0-1.81-.73-3.26-2.99-3.26ZM31.4,5.54h-4.74v-3.33c0-.87-.63-1.47-1.41-1.47h-.78c-.78,0-1.41.6-1.41,1.47v15.33c0,.87.63,1.47,1.41,1.47h.78c.78,0,1.41-.6,1.41-1.47v-8.25h3.63c.28,0,.68.12.68.69v7.56c0,.87.63,1.47,1.41,1.47h.78c.78,0,1.41-.6,1.41-1.47v-8.74c0-1.49-.71-3.26-3.19-3.26Z"/>
    <path class="cls-2" d="M7.11,9.79l2.32,2.28,2.32-2.28v2.4l-2.32,2.23-2.32-2.23v-2.4ZM7.11,5.07l2.32,2.28,2.32-2.28v2.4l-2.32,2.23-2.32-2.23v-2.4ZM9.39.31c5.18,0,9.39,4.2,9.39,9.39s-4.2,9.39-9.39,9.39S0,14.88,0,9.7,4.2.31,9.39.31Z"/>
    <rect class="cls-3" x=".1" y="28.63" width="29.99" height="13.57"/>
    <rect class="cls-3" x="34.52" y="28.63" width="29.99" height="13.57"/>
    <rect class="cls-3" x="68.71" y="28.63" width="29.99" height="13.57"/>
    <rect class="cls-3" x=".1" y="44.65" width="29.99" height="18.58"/>
    <rect class="cls-3" x="34.52" y="44.65" width="29.99" height="18.58"/>
    <rect class="cls-3" x="68.71" y="44.65" width="29.99" height="18.58"/>
    <path class="cls-3" d="M98.24.97c-.31-.31-.73-.5-1.2-.5s-.89.19-1.2.5c-.31.31-.5.73-.5,1.2s.19.89.5,1.2c.31.31.73.5,1.2.5s.89-.19,1.2-.5c.31-.31.5-.73.5-1.2s-.19-.89-.5-1.2M97.04,0c.6,0,1.14.24,1.53.64.39.39.64.94.64,1.54s-.24,1.14-.64,1.54c-.39.39-.94.64-1.53.64s-1.14-.24-1.54-.64c-.39-.39-.64-.93-.64-1.54s.24-1.14.64-1.54c.39-.39.93-.64,1.54-.64Z"/>
    <path class="cls-3" d="M96.39,2.05h.6c.13,0,.23-.01.3-.04.07-.02.13-.07.16-.13.04-.06.06-.12.06-.19,0-.1-.04-.18-.11-.25-.07-.07-.19-.1-.34-.1h-.67v.7ZM96.11,3.23V1.11h.94c.19,0,.33.02.43.06.1.04.18.11.23.2.06.1.09.2.09.32,0,.15-.05.28-.14.38-.1.1-.25.17-.45.2.07.04.13.07.17.1.08.07.16.17.23.28l.36.57h-.35l-.28-.44c-.08-.13-.15-.22-.2-.29-.05-.07-.1-.12-.14-.14-.04-.03-.08-.05-.13-.06-.03,0-.08,0-.16,0h-.32v.94h-.28Z"/>
    <path class="cls-1" d="M25.52,38.22h-2.59v-3.92h2.54v.73h-1.62v.8h1.53v.73h-1.53v.91h1.67v.74ZM22.08,36.47c-.26.22-.62.29-1.02.29h-.48v1.45h-.92v-3.92h1.4c.4,0,.76.08,1.02.3.26.22.41.52.41.94s-.15.72-.41.94ZM21.37,35.12c-.11-.08-.24-.11-.44-.11h-.36v1.05h.36c.2,0,.33-.03.44-.11.11-.08.19-.22.19-.42s-.08-.33-.19-.41ZM17.05,38.29c-1.16,0-2.08-.75-2.08-2.02s.91-2.03,2.08-2.03,2.08.76,2.08,2.03-.91,2.02-2.08,2.02ZM17.05,35.02c-.65,0-1.15.47-1.15,1.22s.49,1.23,1.15,1.23,1.15-.48,1.15-1.23-.49-1.22-1.15-1.22ZM14.87,38.22h-1.07l-.82-1.5h-.29v1.5h-.92v-3.92h1.41c.44,0,.78.09,1.03.28.26.19.43.51.43.9,0,.74-.48,1.03-.77,1.12l.99,1.62ZM13.52,35.11c-.11-.08-.26-.1-.47-.1h-.36v1h.36c.21,0,.36-.02.47-.11.12-.09.2-.19.2-.4s-.08-.31-.2-.4ZM11.08,36.58c0,.55-.1.93-.37,1.23-.27.29-.7.47-1.27.47s-.99-.17-1.27-.47c-.27-.3-.37-.68-.37-1.23v-2.28h.93v2.28c0,.28.02.49.15.65.12.15.31.24.56.24s.44-.1.56-.24c.13-.16.15-.38.15-.65v-2.28h.92v2.28ZM7.26,38.22h-2.59v-3.92h2.54v.73h-1.62v.8h1.53v.73h-1.53v.91h1.67v.74Z"/>
    <path class="cls-1" d="M47.52,36.58c0,.56-.1.94-.38,1.24-.27.3-.7.47-1.28.47s-1-.17-1.28-.47c-.27-.31-.37-.69-.37-1.24v-2.3h.93v2.3c0,.28.02.5.15.66.12.15.31.25.57.25s.44-.1.57-.25c.13-.16.15-.38.15-.66v-2.3h.93v2.3Z"/>
    <path class="cls-1" d="M50.42,37.97c-.28.22-.65.33-1.07.33-.57,0-1.08-.3-1.4-.6l.46-.68c.29.3.73.5,1.03.5s.53-.14.53-.41-.29-.37-.46-.43c-.17-.06-.47-.17-.6-.22-.1-.05-.3-.12-.47-.29-.17-.16-.31-.39-.31-.76s.18-.68.41-.86c.23-.19.59-.32,1.04-.32s.99.22,1.25.49l-.39.65c-.23-.23-.58-.4-.88-.4s-.52.11-.52.35.22.33.4.4c.17.07.46.17.59.22.11.04.37.14.55.32.17.17.31.41.31.76,0,.38-.18.72-.46.95"/>
    <path class="cls-1" d="M54.85,38.23h-1.01l-.28-.8h-1.41l-.28.8h-.96l1.49-3.96h.96l1.49,3.96ZM53.35,36.71l-.49-1.42-.49,1.42h.99Z"/>
    <path class="cls-1" d="M81.39,38.23h-1.03l-.29-.81h-1.43l-.29.81h-.98l1.52-4.03h.98l1.52,4.03ZM79.86,36.68l-.5-1.45-.5,1.45h1Z"/>
    <path class="cls-1" d="M83.86,37.96c-.28.23-.66.33-1.09.33-.58,0-1.1-.31-1.43-.61l.47-.69c.29.3.74.51,1.05.51s.54-.15.54-.41-.3-.38-.47-.44c-.17-.07-.48-.17-.61-.23-.1-.05-.3-.12-.48-.29-.18-.16-.32-.4-.32-.78s.19-.69.42-.88c.23-.19.6-.32,1.06-.32s1,.22,1.28.5l-.4.66c-.23-.24-.6-.41-.9-.41s-.52.12-.52.36.23.34.41.41c.18.07.47.18.6.23.11.04.38.15.56.33.17.17.32.41.32.78,0,.39-.18.74-.47.96"/>
    <rect class="cls-1" x="84.83" y="34.2" width=".94" height="4.02"/>
    <path class="cls-1" d="M90.13,38.23h-1.03l-.29-.81h-1.43l-.29.81h-.98l1.52-4.03h.98l1.52,4.03ZM88.61,36.68l-.5-1.45-.5,1.45h1Z"/>
    <path class="cls-1" d="M13.65,54.59l.46-.04c.02.18.07.34.15.46.08.12.2.21.37.29.17.07.36.11.57.11.19,0,.35-.03.49-.08.14-.06.25-.13.32-.23.07-.1.1-.2.1-.32s-.03-.22-.1-.3-.18-.16-.33-.22c-.1-.04-.32-.1-.66-.18-.34-.08-.58-.16-.71-.23-.18-.09-.31-.21-.39-.34-.09-.14-.13-.29-.13-.46,0-.19.05-.36.16-.52.11-.16.26-.29.46-.37s.43-.13.68-.13c.27,0,.51.04.72.13.21.09.37.22.48.39.11.17.17.37.18.58l-.47.04c-.03-.23-.11-.41-.26-.53-.15-.12-.36-.18-.64-.18s-.51.05-.64.16c-.14.11-.2.24-.2.39,0,.13.05.24.14.33.09.08.34.17.74.26.4.09.67.17.82.24.21.1.37.22.47.38.1.15.15.33.15.52s-.06.38-.17.55c-.11.17-.27.31-.48.4s-.45.14-.71.14c-.33,0-.61-.05-.84-.15-.23-.1-.4-.24-.53-.44-.13-.19-.2-.42-.2-.66"/>
    <path class="cls-1" d="M46.09,55.78l1.49-1.91-1.31-1.77h.61l.7.94c.15.19.25.35.31.45.09-.13.19-.27.31-.41l.77-.98h.56l-1.34,1.75,1.44,1.93h-.63l-.97-1.31c-.06-.07-.11-.15-.16-.22-.09.12-.15.21-.18.26l-.98,1.28h-.61Z"/>
    <path class="cls-1" d="M49.9,54.59l.48-.04c.02.18.08.34.16.46.08.12.21.21.39.29.17.07.37.11.59.11.2,0,.37-.03.51-.08.15-.06.26-.13.33-.23.07-.1.11-.2.11-.32s-.04-.22-.11-.3c-.07-.09-.18-.16-.35-.22-.1-.04-.33-.1-.69-.18-.35-.08-.6-.16-.74-.23-.18-.09-.32-.21-.41-.34-.09-.14-.14-.29-.14-.46,0-.19.05-.36.17-.52.11-.16.27-.29.48-.37.21-.08.45-.13.71-.13.28,0,.54.04.75.13.22.09.39.22.5.39.12.17.18.37.19.58l-.49.04c-.03-.23-.11-.41-.27-.53-.15-.12-.38-.18-.67-.18s-.53.05-.67.16c-.14.11-.21.24-.21.39,0,.13.05.24.15.33.1.08.35.17.77.26.42.09.7.17.85.24.22.1.39.22.5.38.11.15.16.33.16.52s-.06.38-.18.55c-.12.17-.29.31-.51.4s-.47.14-.74.14c-.35,0-.64-.05-.88-.15-.24-.1-.42-.24-.55-.44-.14-.19-.2-.42-.21-.66"/>
    <path class="cls-1" d="M82.2,54.57l.48-.04c.02.18.08.34.16.46.08.12.21.22.39.29.17.07.37.11.59.11.2,0,.37-.03.51-.08.15-.06.26-.13.33-.23s.11-.2.11-.32-.04-.22-.11-.3c-.07-.08-.18-.16-.35-.22-.1-.04-.33-.1-.69-.18-.35-.08-.6-.16-.74-.23-.18-.09-.32-.21-.41-.34-.09-.14-.14-.29-.14-.46,0-.19.05-.36.17-.52.11-.16.27-.29.48-.37s.45-.13.71-.13c.28,0,.54.04.75.13.22.09.39.22.5.39.12.17.18.37.19.58l-.49.04c-.03-.23-.11-.41-.27-.53-.15-.12-.38-.18-.67-.18s-.53.05-.67.16c-.14.11-.21.24-.21.39,0,.13.05.24.15.33.1.09.35.17.77.26.41.09.7.17.85.24.22.1.39.22.5.37.11.15.16.33.16.52s-.06.38-.18.55c-.12.17-.29.31-.51.4-.22.1-.47.14-.74.14-.35,0-.64-.05-.88-.15-.23-.1-.42-.24-.55-.44-.13-.19-.2-.42-.21-.66"/>
  </g>
</svg>